<svg xmlns="http://www.w3.org/2000/svg" version="1.1" xmlns:xlink="http://www.w3.org/1999/xlink" xmlns:svgjs="http://svgjs.dev/svgjs" viewBox="0 0 800 800"><g fill="none" stroke-width="3" stroke="#ffffff" stroke-linecap="round"><line x1="721" y1="400" x2="79" y2="400" transform="rotate(0, 400, 400)" opacity="0.91"></line><line x1="190" y1="400" x2="610" y2="400" transform="rotate(4, 400, 400)" opacity="0.23"></line><line x1="471.5" y1="400" x2="328.5" y2="400" transform="rotate(8, 400, 400)" opacity="0.55"></line><line x1="405.5" y1="400" x2="394.5" y2="400" transform="rotate(12, 400, 400)" opacity="0.24"></line><line x1="678" y1="400" x2="122" y2="400" transform="rotate(16, 400, 400)" opacity="0.71"></line><line x1="408.5" y1="400" x2="391.5" y2="400" transform="rotate(20, 400, 400)" opacity="0.72"></line><line x1="611.5" y1="400" x2="188.5" y2="400" transform="rotate(24, 400, 400)" opacity="0.37"></line><line x1="156.5" y1="400" x2="643.5" y2="400" transform="rotate(28, 400, 400)" opacity="0.77"></line><line x1="589" y1="400" x2="211" y2="400" transform="rotate(32, 400, 400)" opacity="0.61"></line><line x1="200" y1="400" x2="600" y2="400" transform="rotate(36, 400, 400)" opacity="0.59"></line><line x1="224.5" y1="400" x2="575.5" y2="400" transform="rotate(40, 400, 400)" opacity="0.11"></line><line x1="331" y1="400" x2="469" y2="400" transform="rotate(44, 400, 400)" opacity="0.48"></line><line x1="286" y1="400" x2="514" y2="400" transform="rotate(48, 400, 400)" opacity="0.70"></line><line x1="297.5" y1="400" x2="502.5" y2="400" transform="rotate(52, 400, 400)" opacity="0.32"></line><line x1="617.5" y1="400" x2="182.5" y2="400" transform="rotate(56, 400, 400)" opacity="0.19"></line><line x1="647" y1="400" x2="153" y2="400" transform="rotate(60, 400, 400)" opacity="0.11"></line><line x1="730.5" y1="400" x2="69.5" y2="400" transform="rotate(64, 400, 400)" opacity="0.97"></line><line x1="542.5" y1="400" x2="257.5" y2="400" transform="rotate(68, 400, 400)" opacity="0.76"></line><line x1="339" y1="400" x2="461" y2="400" transform="rotate(72, 400, 400)" opacity="0.25"></line><line x1="573" y1="400" x2="227" y2="400" transform="rotate(76, 400, 400)" opacity="0.12"></line><line x1="624" y1="400" x2="176" y2="400" transform="rotate(80, 400, 400)" opacity="0.98"></line><line x1="651" y1="400" x2="149" y2="400" transform="rotate(84, 400, 400)" opacity="0.32"></line><line x1="476.5" y1="400" x2="323.5" y2="400" transform="rotate(88, 400, 400)" opacity="0.99"></line><line x1="280" y1="400" x2="520" y2="400" transform="rotate(92, 400, 400)" opacity="0.38"></line><line x1="423.5" y1="400" x2="376.5" y2="400" transform="rotate(96, 400, 400)" opacity="0.29"></line><line x1="35.5" y1="400" x2="764.5" y2="400" transform="rotate(100, 400, 400)" opacity="0.51"></line><line x1="465.5" y1="400" x2="334.5" y2="400" transform="rotate(104, 400, 400)" opacity="0.14"></line><line x1="628.5" y1="400" x2="171.5" y2="400" transform="rotate(108, 400, 400)" opacity="0.24"></line><line x1="363" y1="400" x2="437" y2="400" transform="rotate(112, 400, 400)" opacity="0.72"></line><line x1="119.5" y1="400" x2="680.5" y2="400" transform="rotate(116, 400, 400)" opacity="0.66"></line><line x1="374" y1="400" x2="426" y2="400" transform="rotate(120, 400, 400)" opacity="0.13"></line><line x1="223" y1="400" x2="577" y2="400" transform="rotate(124, 400, 400)" opacity="0.78"></line><line x1="192.5" y1="400" x2="607.5" y2="400" transform="rotate(128, 400, 400)" opacity="0.71"></line><line x1="657.5" y1="400" x2="142.5" y2="400" transform="rotate(132, 400, 400)" opacity="0.54"></line><line x1="242" y1="400" x2="558" y2="400" transform="rotate(136, 400, 400)" opacity="0.85"></line><line x1="481" y1="400" x2="319" y2="400" transform="rotate(140, 400, 400)" opacity="0.18"></line><line x1="279.5" y1="400" x2="520.5" y2="400" transform="rotate(144, 400, 400)" opacity="0.48"></line><line x1="479" y1="400" x2="321" y2="400" transform="rotate(148, 400, 400)" opacity="0.77"></line><line x1="741" y1="400" x2="59" y2="400" transform="rotate(152, 400, 400)" opacity="0.12"></line><line x1="713" y1="400" x2="87" y2="400" transform="rotate(156, 400, 400)" opacity="0.16"></line><line x1="84.5" y1="400" x2="715.5" y2="400" transform="rotate(160, 400, 400)" opacity="0.28"></line><line x1="160.5" y1="400" x2="639.5" y2="400" transform="rotate(164, 400, 400)" opacity="0.30"></line><line x1="169" y1="400" x2="631" y2="400" transform="rotate(168, 400, 400)" opacity="0.81"></line><line x1="31.5" y1="400" x2="768.5" y2="400" transform="rotate(172, 400, 400)" opacity="0.71"></line><line x1="684.5" y1="400" x2="115.5" y2="400" transform="rotate(176, 400, 400)" opacity="0.22"></line><line x1="160" y1="400" x2="640" y2="400" transform="rotate(180, 400, 400)" opacity="0.45"></line><line x1="63.5" y1="400" x2="736.5" y2="400" transform="rotate(184, 400, 400)" opacity="0.72"></line><line x1="628" y1="400" x2="172" y2="400" transform="rotate(188, 400, 400)" opacity="0.38"></line><line x1="84.5" y1="400" x2="715.5" y2="400" transform="rotate(192, 400, 400)" opacity="0.81"></line><line x1="83.5" y1="400" x2="716.5" y2="400" transform="rotate(196, 400, 400)" opacity="0.20"></line><line x1="271.5" y1="400" x2="528.5" y2="400" transform="rotate(200, 400, 400)" opacity="0.52"></line><line x1="620.5" y1="400" x2="179.5" y2="400" transform="rotate(204, 400, 400)" opacity="0.78"></line><line x1="681.5" y1="400" x2="118.5" y2="400" transform="rotate(208, 400, 400)" opacity="0.33"></line><line x1="565" y1="400" x2="235" y2="400" transform="rotate(212, 400, 400)" opacity="0.50"></line><line x1="439.5" y1="400" x2="360.5" y2="400" transform="rotate(216, 400, 400)" opacity="0.87"></line><line x1="121.5" y1="400" x2="678.5" y2="400" transform="rotate(220, 400, 400)" opacity="0.27"></line><line x1="174.5" y1="400" x2="625.5" y2="400" transform="rotate(224, 400, 400)" opacity="0.45"></line><line x1="320.5" y1="400" x2="479.5" y2="400" transform="rotate(228, 400, 400)" opacity="0.63"></line><line x1="680.5" y1="400" x2="119.5" y2="400" transform="rotate(232, 400, 400)" opacity="0.65"></line><line x1="245" y1="400" x2="555" y2="400" transform="rotate(236, 400, 400)" opacity="0.31"></line><line x1="242.5" y1="400" x2="557.5" y2="400" transform="rotate(240, 400, 400)" opacity="0.24"></line><line x1="291" y1="400" x2="509" y2="400" transform="rotate(244, 400, 400)" opacity="0.95"></line><line x1="480" y1="400" x2="320" y2="400" transform="rotate(248, 400, 400)" opacity="0.25"></line><line x1="313.5" y1="400" x2="486.5" y2="400" transform="rotate(252, 400, 400)" opacity="0.21"></line><line x1="265" y1="400" x2="535" y2="400" transform="rotate(256, 400, 400)" opacity="0.18"></line><line x1="64" y1="400" x2="736" y2="400" transform="rotate(260, 400, 400)" opacity="0.76"></line><line x1="480" y1="400" x2="320" y2="400" transform="rotate(264, 400, 400)" opacity="0.29"></line><line x1="606" y1="400" x2="194" y2="400" transform="rotate(268, 400, 400)" opacity="0.83"></line><line x1="485" y1="400" x2="315" y2="400" transform="rotate(272, 400, 400)" opacity="0.56"></line><line x1="727.5" y1="400" x2="72.5" y2="400" transform="rotate(276, 400, 400)" opacity="0.38"></line><line x1="668.5" y1="400" x2="131.5" y2="400" transform="rotate(280, 400, 400)" opacity="0.46"></line><line x1="669" y1="400" x2="131" y2="400" transform="rotate(284, 400, 400)" opacity="0.43"></line><line x1="671" y1="400" x2="129" y2="400" transform="rotate(288, 400, 400)" opacity="0.54"></line><line x1="332.5" y1="400" x2="467.5" y2="400" transform="rotate(292, 400, 400)" opacity="0.38"></line><line x1="150.5" y1="400" x2="649.5" y2="400" transform="rotate(296, 400, 400)" opacity="0.30"></line><line x1="301" y1="400" x2="499" y2="400" transform="rotate(300, 400, 400)" opacity="0.68"></line><line x1="136" y1="400" x2="664" y2="400" transform="rotate(304, 400, 400)" opacity="0.86"></line><line x1="307.5" y1="400" x2="492.5" y2="400" transform="rotate(308, 400, 400)" opacity="0.81"></line><line x1="641" y1="400" x2="159" y2="400" transform="rotate(312, 400, 400)" opacity="0.82"></line><line x1="649" y1="400" x2="151" y2="400" transform="rotate(316, 400, 400)" opacity="0.87"></line><line x1="151" y1="400" x2="649" y2="400" transform="rotate(320, 400, 400)" opacity="0.41"></line><line x1="377" y1="400" x2="423" y2="400" transform="rotate(324, 400, 400)" opacity="0.14"></line><line x1="534.5" y1="400" x2="265.5" y2="400" transform="rotate(328, 400, 400)" opacity="0.63"></line><line x1="33" y1="400" x2="767" y2="400" transform="rotate(332, 400, 400)" opacity="0.28"></line><line x1="102.5" y1="400" x2="697.5" y2="400" transform="rotate(336, 400, 400)" opacity="0.19"></line><line x1="579.5" y1="400" x2="220.5" y2="400" transform="rotate(340, 400, 400)" opacity="0.34"></line><line x1="523.5" y1="400" x2="276.5" y2="400" transform="rotate(344, 400, 400)" opacity="0.13"></line><line x1="414.5" y1="400" x2="385.5" y2="400" transform="rotate(348, 400, 400)" opacity="0.67"></line></g></svg>